<svg width="84" height="84" viewBox="0 0 84 84" fill="none" xmlns="http://www.w3.org/2000/svg">
<g filter="url(#filter0_d_114_272)">
<path d="M10 67.9993C10.1526 67.4408 10.2962 66.9094 10.4423 66.378C11.6865 61.8542 12.9325 57.3303 14.1701 52.804C14.1998 52.6948 14.1866 52.5429 14.1313 52.4459C12.0793 48.8215 10.7789 44.9465 10.4109 40.8038C9.55939 31.219 12.5818 23.005 19.4938 16.2808C23.8083 12.0839 29.0115 9.5074 34.9556 8.45775C44.2818 6.81018 53.7921 9.66263 60.6587 16.1675C65.1481 20.4211 68.06 25.5699 69.3505 31.6107C71.4273 41.331 68.4503 51.4743 61.4112 58.5812C56.9383 63.0968 51.5593 65.9575 45.2777 67.0433C38.525 68.2103 32.0999 67.1632 26.0311 63.9838C25.8859 63.9083 25.7613 63.8927 25.6037 63.9346C20.474 65.2782 15.3443 66.6178 10.2137 67.9574C10.1535 67.973 10.0916 67.9812 10 67.9993Z" fill="#007FC3"/>
<path d="M36.3665 31.5781L38.0391 34.8507C38.2573 35.3234 38.1482 35.8689 37.7482 36.1961L36.2574 37.3961C36.8756 38.5596 37.4573 39.4687 38.5118 40.4868C39.6027 41.5777 40.5117 42.1595 41.639 42.7776L42.8025 41.2504C43.1298 40.8504 43.7116 40.7413 44.1843 40.9959L47.4569 42.6685C48.0387 42.9594 48.2205 43.6867 47.8568 44.2321L46.4387 46.3047C46.1115 46.7774 45.5661 47.032 44.9843 46.9956C44.4025 46.9592 43.6752 46.8865 43.1298 46.7411C40.8026 46.1593 38.4028 44.7048 36.3665 42.6685C34.2939 40.5959 32.8394 38.196 32.2576 35.8689C32.1121 35.3598 32.0394 34.5962 32.0031 33.978C31.9667 33.3962 32.2576 32.8144 32.7303 32.5236L34.8393 31.1782C35.3847 30.8145 36.0756 31.0327 36.3665 31.5781Z" fill="white"/>
</g>
<defs>
<filter id="filter0_d_114_272" x="0" y="0" width="83.999" height="83.999" filterUnits="userSpaceOnUse" color-interpolation-filters="sRGB">
<feFlood flood-opacity="0" result="BackgroundImageFix"/>
<feColorMatrix in="SourceAlpha" type="matrix" values="0 0 0 0 0 0 0 0 0 0 0 0 0 0 0 0 0 0 127 0" result="hardAlpha"/>
<feOffset dx="2" dy="4"/>
<feGaussianBlur stdDeviation="6"/>
<feComposite in2="hardAlpha" operator="out"/>
<feColorMatrix type="matrix" values="0 0 0 0 0.00784314 0 0 0 0 0.498039 0 0 0 0 0.764706 0 0 0 1 0"/>
<feBlend mode="normal" in2="BackgroundImageFix" result="effect1_dropShadow_114_272"/>
<feBlend mode="normal" in="SourceGraphic" in2="effect1_dropShadow_114_272" result="shape"/>
</filter>
</defs>
</svg>
