<svg width="80" height="46" viewBox="0 0 80 46" fill="none" xmlns="http://www.w3.org/2000/svg">
<g clip-path="url(#clip0_114_288)">
<path d="M2.84033 13.4521H24.794C25.4264 13.4521 25.9517 13.9642 25.9517 14.6043C25.9517 15.2337 25.4371 15.7564 24.794 15.7564H2.84033C2.20788 15.7564 1.68262 15.2444 1.68262 14.6043C1.69334 13.9642 2.20788 13.4521 2.84033 13.4521Z" fill="#B59A8C"/>
<path d="M6.75293 28.0459V39.8126C6.75293 40.3993 7.31035 40.9648 7.91064 40.9648H15.4894L15.618 41.3168C16.6256 44.1224 19.2948 46.0107 22.2641 46.0107C25.2334 46.0107 27.9026 44.1224 28.9102 41.3168L29.0389 40.9648H57.7137L57.8423 41.3168C58.8499 44.1224 61.5191 46.0107 64.4884 46.0107C67.4577 46.0107 70.1269 44.1224 71.1346 41.3168L71.2632 40.9648H78.8419C79.4315 40.9648 79.9996 40.41 79.9996 39.8126V20.4824C79.9996 20.0237 79.678 19.5649 79.2385 19.4049L66.1071 14.5083L57.0169 0.522727C56.8132 0.20269 56.4273 0 56.0521 0C56.0521 0 56.0521 0 56.0414 0H7.91064C7.26747 0 6.75293 0.512059 6.75293 1.15213C6.75293 1.78154 7.26747 2.30427 7.91064 2.30427H55.409L64.3491 16.0659C64.4884 16.2686 64.6921 16.4286 64.9387 16.5139L77.6842 21.2611V38.6605H71.5526L71.499 38.1804C71.1024 34.6173 68.0902 31.929 64.4884 31.929C60.8867 31.929 57.8637 34.6173 57.4778 38.1804L57.4242 38.6605H29.339L29.2854 38.1804C28.8888 34.6173 25.8766 31.929 22.2748 31.929C18.6731 31.929 15.6502 34.6173 15.2643 38.1804L15.2107 38.6605H9.05763V28.0459C9.05763 27.4165 8.54309 26.8938 7.89992 26.8938C7.26747 26.8938 6.75293 27.4058 6.75293 28.0459ZM59.729 38.9698C59.729 36.3135 61.8193 34.2333 64.4884 34.2333C67.1576 34.2333 69.2479 36.3135 69.2479 38.9698C69.2479 41.6262 67.1576 43.7064 64.4884 43.7064C61.8193 43.7064 59.729 41.6262 59.729 38.9698ZM17.5046 38.9698C17.5046 36.3135 19.595 34.2333 22.2641 34.2333C24.9333 34.2333 27.0236 36.3135 27.0236 38.9698C27.0236 41.6262 24.9333 43.7064 22.2641 43.7064C19.595 43.7064 17.5046 41.6262 17.5046 38.9698Z" fill="#B59A8C"/>
<path d="M6.21728 20.1729H24.7943C25.4267 20.1729 25.952 20.6849 25.952 21.325C25.952 21.9544 25.4374 22.4771 24.7943 22.4771H6.21728C5.58483 22.4771 5.05957 21.9651 5.05957 21.325C5.07029 20.6849 5.58483 20.1729 6.21728 20.1729Z" fill="#B59A8C"/>
<path d="M1.15771 6.7207H24.805C25.4375 6.7207 25.9627 7.23276 25.9627 7.87284C25.9627 8.50224 25.4482 9.02497 24.805 9.02497H1.15771C0.514538 9.0143 0 8.50224 0 7.87284C0 7.24343 0.514538 6.7207 1.15771 6.7207Z" fill="#B59A8C"/>
</g>
<defs>
<clipPath id="clip0_114_288">
<rect width="80" height="46" fill="white"/>
</clipPath>
</defs>
</svg>
