<svg width="40" height="39" viewBox="0 0 40 39" fill="none" xmlns="http://www.w3.org/2000/svg">
<path d="M20.4121 0C9.59843 0 0.824219 8.72916 0.824219 19.5037C0.824219 30.2708 9.59109 39.0073 20.4121 39.0073C31.2258 39.0073 40.0001 30.2781 40.0001 19.5037C40.0001 8.72916 31.2332 0 20.4121 0ZM26.0904 11.5415C26.0904 11.5415 24.1683 11.5415 23.4127 11.5415C22.4663 11.5415 22.2682 11.9286 22.2682 12.9002C22.2682 13.711 22.2682 15.2523 22.2682 15.2523H26.0904L25.7236 19.3868H22.2682V31.7391H17.3162V19.4452H14.7412V15.2596H17.3162C17.3162 15.2596 17.3162 14.6606 17.3162 11.9652C17.3162 8.86795 18.9816 7.25361 22.6644 7.25361C23.266 7.25361 26.0978 7.25361 26.0978 7.25361V11.5415H26.0904Z" fill="white"/>
</svg>
