<svg width="40" height="39" viewBox="0 0 40 39" fill="none" xmlns="http://www.w3.org/2000/svg">
<path d="M28.2818 12.9512C28.0764 12.4326 27.8343 12.06 27.4455 11.6729C27.0567 11.2857 26.6825 11.0447 26.1616 10.8401C25.7655 10.6867 25.1786 10.5041 24.0928 10.4603C22.919 10.4091 22.5669 10.3945 19.581 10.3945C16.6024 10.3945 16.2503 10.4091 15.0692 10.4603C13.9834 10.5114 13.3891 10.694 13.0003 10.8401C12.4794 11.0447 12.1053 11.2857 11.7165 11.6729C11.3276 12.06 11.0855 12.4326 10.8801 12.9512C10.7261 13.3456 10.5427 13.93 10.4986 15.0111C10.4473 16.1799 10.4326 16.5305 10.4326 19.5035C10.4326 22.4766 10.4473 22.8199 10.4986 23.996C10.55 25.0771 10.7334 25.6687 10.8801 26.0559C11.0855 26.5745 11.3276 26.9471 11.7165 27.3342C12.1053 27.7214 12.4794 27.9624 13.0003 28.167C13.3965 28.3204 13.9834 28.503 15.0692 28.5468C16.243 28.5979 16.5951 28.6125 19.581 28.6125C22.5595 28.6125 22.9117 28.5979 24.0928 28.5468C25.1786 28.4957 25.7728 28.3131 26.1616 28.167C26.6825 27.9624 27.0567 27.7214 27.4455 27.3342C27.8343 26.9471 28.0764 26.5745 28.2818 26.0559C28.4359 25.6614 28.6193 25.0771 28.6633 23.996C28.7147 22.8272 28.7293 22.4766 28.7293 19.5035C28.7293 16.5305 28.7147 16.1872 28.6633 15.0111C28.6193 13.93 28.4359 13.3383 28.2818 12.9512ZM19.5883 25.2085C16.4264 25.2085 13.8587 22.6519 13.8587 19.5035C13.8587 16.3552 16.4264 13.7985 19.5883 13.7985C22.7503 13.7985 25.318 16.3552 25.318 19.5035C25.318 22.6519 22.7503 25.2085 19.5883 25.2085ZM25.5454 14.9016C24.8044 14.9016 24.2029 14.3026 24.2029 13.5648C24.2029 12.827 24.8044 12.228 25.5454 12.228C26.2864 12.228 26.8879 12.827 26.8879 13.5648C26.8806 14.3099 26.279 14.9016 25.5454 14.9016Z" fill="white"/>
<path d="M19.5877 15.8003C17.5335 15.8003 15.8682 17.4585 15.8682 19.5038C15.8682 21.5491 17.5335 23.2073 19.5877 23.2073C21.6418 23.2073 23.3072 21.5491 23.3072 19.5038C23.3072 17.4585 21.6418 15.8003 19.5877 15.8003Z" fill="white"/>
<path d="M19.5879 0C8.76688 0 0 8.72916 0 19.5037C0 30.2708 8.76688 39.0073 19.5879 39.0073C30.4016 39.0073 39.1758 30.2781 39.1758 19.5037C39.1685 8.72916 30.4016 0 19.5879 0ZM30.6804 24.0837C30.629 25.2671 30.4383 26.0706 30.1595 26.7792C29.8734 27.5096 29.4919 28.1305 28.8757 28.7441C28.2521 29.365 27.6358 29.7449 26.9022 30.0225C26.1906 30.3001 25.3836 30.4827 24.1951 30.5411C23.0066 30.5922 22.6251 30.6069 19.5953 30.6069C16.5654 30.6069 16.1839 30.5922 14.9954 30.5411C13.8069 30.49 12.9999 30.3001 12.2883 30.0225C11.5547 29.7376 10.9311 29.3577 10.3148 28.7441C9.69125 28.1232 9.30976 27.5096 9.03098 26.7792C8.75221 26.0706 8.5688 25.2671 8.51011 24.0837C8.45875 22.9004 8.44408 22.5205 8.44408 19.5037C8.44408 16.4868 8.45875 16.1069 8.51011 14.9236C8.56146 13.7402 8.75221 12.9367 9.03098 12.2281C9.3171 11.4977 9.69859 10.8768 10.3148 10.2632C10.9384 9.64225 11.5547 9.26241 12.2883 8.98483C12.9999 8.70725 13.8069 8.52463 14.9954 8.46619C16.1839 8.41506 16.5654 8.40045 19.5953 8.40045C22.6251 8.40045 23.0066 8.41506 24.1951 8.46619C25.3836 8.51733 26.1906 8.70725 26.9022 8.98483C27.6358 9.26971 28.2594 9.64956 28.8757 10.2632C29.4993 10.8841 29.8807 11.4977 30.1595 12.2281C30.4383 12.9367 30.6217 13.7402 30.6804 14.9236C30.7318 16.1069 30.7464 16.4868 30.7464 19.5037C30.7464 22.5205 30.7318 22.9004 30.6804 24.0837Z" fill="white"/>
</svg>
