<svg width="74" height="74" viewBox="0 0 74 74" fill="none" xmlns="http://www.w3.org/2000/svg">
<g clip-path="url(#clip0_114_295)">
<path fill-rule="evenodd" clip-rule="evenodd" d="M38.1656 48.4616L49.4479 39.4358L49.5674 40.0933C49.7468 41.0945 49.8813 42.1107 49.8813 43.1268C49.8813 49.6123 45.0545 55.0965 38.6288 55.9184L38.1805 55.9782V48.4616H38.1656ZM38.1656 35.9838L45.7569 29.6478L45.981 30.1111C47.0271 32.248 47.9834 34.4596 48.7007 36.731L48.7904 37L38.1656 45.5028V35.9838ZM38.8829 18.2161C40.9002 21.13 42.7981 24.1636 44.5016 27.2718L44.666 27.5557L38.1656 32.9653V17.1551L38.8829 18.2161ZM35.8344 32.9653L29.334 27.5557L29.4984 27.2718C31.2019 24.1636 33.0998 21.13 35.1171 18.2161L35.8494 17.1551V32.9653H35.8344ZM35.8494 45.5028L25.2246 37L25.3142 36.731C26.0315 34.4596 26.9879 32.248 28.0339 30.1111L28.2581 29.6478L35.8494 35.9838V45.5028ZM35.3861 55.9334C28.9604 55.1115 24.1337 49.6272 24.1337 43.1418C24.1337 42.1256 24.2682 41.0945 24.4475 40.1082L24.567 39.4507L35.8344 48.4766V56.0081L35.3861 55.9334ZM36.0884 12.9111C35.67 13.4491 35.2666 13.9871 34.878 14.525C33.9814 15.7504 33.1147 17.0057 32.2629 18.2609C29.8122 21.9071 27.5258 25.7476 25.643 29.7076C24.582 31.9342 23.6256 34.2504 22.9233 36.6115C22.2956 38.7036 21.8324 40.9301 21.8324 43.1268C21.8324 50.9273 27.75 57.4576 35.4907 58.2496L35.8494 58.2795V63.4798C35.8494 64.1224 36.3724 64.6304 37 64.6304C37.6426 64.6304 38.1656 64.1074 38.1656 63.4798V58.2795L38.5242 58.2496C46.2649 57.4576 52.1825 50.9273 52.1825 43.1268C52.1825 40.9451 51.7193 38.7036 51.0917 36.6115C50.3893 34.2504 49.433 31.9342 48.372 29.7076C46.4891 25.7476 44.1878 21.9071 41.752 18.2609C40.9002 16.9907 40.0335 15.7504 39.1369 14.525C38.7334 13.9871 38.33 13.4491 37.9116 12.9111C37.4782 12.3582 36.5218 12.3582 36.0884 12.9111ZM69.6664 41.229C68.8146 42.4394 67.8881 43.7246 67.4996 45.1741C67.0961 46.6684 67.2456 48.2823 67.395 49.8215C67.4697 50.6284 67.5444 51.4503 67.5295 52.2722C67.5145 52.9746 67.4099 53.7367 67.0513 54.3493C66.6926 54.977 66.08 55.4552 65.4523 55.8288C64.75 56.2621 63.9879 56.6058 63.2407 56.9495C61.8659 57.5771 60.4015 58.2496 59.3106 59.3405C58.2197 60.4164 57.5622 61.8958 56.9196 63.2706C56.5759 64.0178 56.2322 64.7799 55.7989 65.4822C55.4253 66.0949 54.9471 66.7076 54.3195 67.0662C53.6918 67.4249 52.9447 67.5295 52.2423 67.5444C51.4354 67.5594 50.5985 67.4846 49.8065 67.4099C48.2823 67.2754 46.6684 67.126 45.1591 67.5145C43.7096 67.9031 42.4245 68.8296 41.2141 69.6813C40.0485 70.5032 38.4645 71.6987 36.9851 71.6987C35.5057 71.6987 33.9216 70.5032 32.7561 69.6813C31.5456 68.8296 30.2456 67.9031 28.811 67.5145C28.0937 67.3053 27.3465 67.2456 26.5994 67.2456C25.7924 67.2456 24.9855 67.3203 24.1785 67.395C23.3716 67.4697 22.5497 67.5444 21.7278 67.5295C21.0254 67.5145 20.2633 67.4099 19.6506 67.0513C19.023 66.6926 18.5448 66.08 18.1712 65.4523C17.7379 64.75 17.3942 63.9879 17.0505 63.2407C16.4229 61.8659 15.7504 60.4015 14.6595 59.3106C13.5836 58.2346 12.1042 57.5622 10.7443 56.9196C9.99717 56.5759 9.23506 56.2322 8.53271 55.7989C7.92003 55.4253 7.30735 54.9471 6.93376 54.3195C6.57512 53.7068 6.47052 52.9447 6.45557 52.2423C6.44063 51.4354 6.51535 50.5985 6.59006 49.7916C6.72456 48.2674 6.87399 46.6535 6.47052 45.1442C6.08199 43.6947 5.15549 42.4095 4.30372 41.1991C3.48183 40.0335 2.28635 38.4495 2.28635 36.9701C2.28635 35.4907 3.48183 33.9067 4.30372 32.7411C5.15549 31.5307 6.08199 30.2456 6.47052 28.796C6.87399 27.3017 6.72456 25.6729 6.59006 24.1486C6.51535 23.3417 6.44063 22.5198 6.45557 21.7128C6.47052 21.0105 6.57512 20.2484 6.93376 19.6357C7.29241 19.0081 7.90509 18.5299 8.51777 18.1563C9.22011 17.7229 9.98223 17.3792 10.7294 17.0355C12.1042 16.4079 13.5687 15.7355 14.6595 14.6446C15.7653 13.5985 16.4378 12.1341 17.0654 10.7593C17.4091 10.0121 17.7528 9.25 18.1862 8.54766C18.5598 7.93498 19.038 7.32229 19.6656 6.94871C20.2783 6.59006 21.0404 6.48546 21.7427 6.47052C22.5497 6.45557 23.3865 6.53029 24.1935 6.60501C25.7177 6.7395 27.3316 6.88893 28.8409 6.48546C30.2904 6.09693 31.5755 5.17044 32.7859 4.31866C33.9515 3.49677 35.5355 2.30129 37.0149 2.30129C38.4943 2.30129 40.0784 3.49677 41.2439 4.31866C42.4544 5.17044 43.7395 6.09693 45.189 6.48546C46.6834 6.88893 48.2972 6.7395 49.8364 6.60501C50.6434 6.53029 51.4653 6.45557 52.2872 6.47052C52.9895 6.48546 53.7516 6.59006 54.3643 6.94871C54.9919 7.30735 55.4701 7.92003 55.8437 8.53271C56.2771 9.23506 56.6208 9.99717 56.9645 10.7443C57.5921 12.1191 58.2645 13.5836 59.3554 14.6745C60.4313 15.7504 61.9107 16.4229 63.2855 17.0654C64.0327 17.4091 64.7948 17.7528 65.4972 18.1712C66.1099 18.5448 66.7225 19.023 67.0961 19.6506C67.4548 20.2783 67.5594 21.0254 67.5743 21.7278C67.5893 22.5347 67.5145 23.3716 67.4398 24.1636C67.3053 25.6878 67.1559 27.3166 67.5444 28.811C67.933 30.2605 68.8595 31.5456 69.7112 32.7561C70.5331 33.9216 71.7286 35.5057 71.7286 36.9851C71.6838 38.4794 70.4883 40.0634 69.6664 41.229ZM71.5642 42.5739C72.7298 40.9301 74.0149 39.122 74.0149 37C74.0149 34.893 72.7298 33.0848 71.5642 31.4261C70.9067 30.4996 70.04 29.334 69.7411 28.2282C69.5767 27.6454 69.5468 27.0028 69.5618 26.4051C69.5767 25.7326 69.6365 25.0602 69.6963 24.3877C69.8756 22.4152 70.0848 20.2783 69.0537 18.5C68.0226 16.7068 66.0202 15.7952 64.227 14.9584C63.166 14.4653 61.8061 13.8825 60.9693 13.0456C60.1325 12.2088 59.5497 10.8639 59.0565 9.78796C58.2346 7.99475 57.3082 5.99233 55.5299 4.96123C53.7367 3.93013 51.5998 4.13934 49.6272 4.31866C48.9548 4.37843 48.2823 4.43821 47.6099 4.45315C47.0121 4.46809 46.3695 4.43821 45.7868 4.27383C44.6809 3.97496 43.5153 3.10824 42.5739 2.45073C40.9152 1.27019 39.107 0 37 0C34.893 0 33.0848 1.27019 31.4261 2.45073C30.4996 3.10824 29.334 3.97496 28.2132 4.27383C27.6304 4.43821 26.9879 4.46809 26.3901 4.45315C25.7177 4.43821 25.0452 4.37843 24.3728 4.31866C22.4152 4.12439 20.2783 3.91519 18.5 4.94628C16.7068 5.97738 15.7952 7.97981 14.9584 9.77302C14.4653 10.8489 13.8825 12.2088 13.0456 13.0456C12.2088 13.8825 10.8639 14.4653 9.78796 14.9584C7.99475 15.7803 5.99233 16.7068 4.96123 18.5C3.93013 20.2783 4.12439 22.4152 4.30372 24.3877C4.36349 25.0602 4.42326 25.7326 4.43821 26.4051C4.45315 27.0028 4.42326 27.6454 4.25888 28.2282C3.96002 29.334 3.0933 30.4996 2.43578 31.441C1.27019 33.0848 0 34.893 0 37C0 39.107 1.27019 40.9152 2.45073 42.5739C3.10824 43.5004 3.97496 44.6809 4.27383 45.7868C4.42326 46.3695 4.46809 47.0121 4.45315 47.6099C4.43821 48.2823 4.37843 48.9548 4.31866 49.6272C4.13934 51.5998 3.93013 53.7367 4.96123 55.5149C5.99233 57.3082 7.99475 58.2197 9.78796 59.0565C10.8489 59.5497 12.2088 60.1325 13.0456 60.9693C13.8825 61.8061 14.4653 63.151 14.9584 64.227C15.7803 66.0202 16.7068 68.0226 18.5 69.0687C20.2932 70.0998 22.4301 69.8905 24.3877 69.7112C25.0602 69.6515 25.7326 69.5917 26.4051 69.5767C27.0028 69.5618 27.6454 69.5917 28.2282 69.7561C29.334 70.0549 30.4996 70.9216 31.441 71.5792C33.0848 72.7448 34.893 74.0299 37.0149 74.0299C39.122 74.0299 40.9301 72.7448 42.5889 71.5792C43.5153 70.9216 44.6809 70.0549 45.7868 69.7561C46.3695 69.6066 47.0121 69.5767 47.6099 69.5767C48.2823 69.5917 48.9548 69.6515 49.6272 69.7112C51.5998 69.8905 53.7367 70.0998 55.5149 69.0687C57.3082 68.0376 58.2197 66.0351 59.0565 64.2419C59.5497 63.1809 60.1325 61.8211 60.9693 60.9842C61.8061 60.1474 63.151 59.5646 64.227 59.0715C66.0202 58.2496 68.0226 57.3231 69.0537 55.5299C70.0848 53.7516 69.8756 51.5998 69.6963 49.6422C69.6365 48.9697 69.5767 48.2973 69.5618 47.6248C69.5468 47.0271 69.5767 46.3845 69.7411 45.8017C70.025 44.666 70.9067 43.5004 71.5642 42.5739Z" fill="#B59A8C"/>
</g>
<defs>
<clipPath id="clip0_114_295">
<rect width="74" height="74" fill="white"/>
</clipPath>
</defs>
</svg>
