<svg width="116" height="86" viewBox="0 0 116 86" fill="none" xmlns="http://www.w3.org/2000/svg">
<g clip-path="url(#clip0_114_25)">
<path d="M4.32574 77.6864C4.32574 75.4132 5.96267 73.7142 8.11407 73.7142C10.2947 73.7142 11.9316 75.4132 11.9316 77.6864C11.9316 78.5828 11.651 79.444 11.1716 80.1178L9.98485 78.8992L9.14884 79.8073L10.3648 80.9966C9.76269 81.4946 8.93253 81.7582 8.11407 81.7582C5.96267 81.7641 4.32574 79.9772 4.32574 77.6864ZM2.83496 77.6864C2.83496 80.6919 5.04482 83.0999 8.11991 83.0999C9.39438 83.0999 10.5052 82.7015 11.3996 81.9691L12.5981 83.1877L13.4458 82.2796L12.2298 81.1079C12.9781 80.1998 13.4282 78.9988 13.4282 77.6923C13.4282 74.6985 11.2184 72.396 8.11407 72.396C5.0682 72.396 2.83496 74.6985 2.83496 77.6864Z" fill="white"/>
<path d="M15.9421 80.7855C15.9421 79.4204 17.9006 79.3326 18.9587 79.3326H19.327V79.6138C19.327 80.7152 18.5787 81.9748 17.3393 81.9748C16.4098 81.969 15.9421 81.3714 15.9421 80.7855ZM14.5215 80.9027C14.5215 82.2971 15.7083 83.0997 16.9944 83.0997C18.0935 83.0997 18.9997 82.4377 19.4206 81.5881H19.4498C19.4498 81.5881 19.4089 81.8342 19.4089 82.174V82.9239H20.7418V78.2311C20.7418 76.3563 19.672 75.3252 17.8129 75.3252C16.7723 75.3252 15.6498 75.706 15.0476 76.204L15.6206 77.2469C16.2227 76.8192 16.9652 76.5262 17.696 76.5262C18.6197 76.5262 19.3212 76.9363 19.3212 78.1549V78.3014H18.9412C17.4037 78.3014 14.5215 78.5709 14.5215 80.9027Z" fill="white"/>
<path d="M22.2803 82.924H28.676V81.6936H24.9169C24.4317 81.6936 24.1861 81.7405 24.1861 81.7405V81.7112C24.1861 81.7112 24.5077 81.4183 24.8175 81.0199L28.5474 76.3271V75.5068H22.4381V76.7254H25.9049C26.3901 76.7254 26.624 76.6962 26.624 76.6962V76.7254C26.624 76.7254 26.3317 77.0184 26.0218 77.4168L22.2744 82.1096V82.924H22.2803Z" fill="white"/>
<path d="M31.1306 80.7855C31.1306 79.4204 33.0891 79.3326 34.1472 79.3326H34.5097V79.6138C34.5097 80.7152 33.7614 81.9748 32.522 81.9748C31.5983 81.969 31.1306 81.3714 31.1306 80.7855ZM29.71 80.9027C29.71 82.2971 30.8967 83.0997 32.1829 83.0997C33.282 83.0997 34.1881 82.4377 34.6091 81.5881H34.6383C34.6383 81.5881 34.5915 81.8342 34.5915 82.174V82.9239H35.9245V78.2311C35.9245 76.3563 34.8546 75.3252 32.9955 75.3252C31.9549 75.3252 30.8324 75.706 30.2303 76.204L30.8032 77.2469C31.4054 76.8192 32.1478 76.5262 32.8786 76.5262C33.8023 76.5262 34.5038 76.9363 34.5038 78.1549V78.3014H34.1238C32.5921 78.3014 29.71 78.5709 29.71 80.9027Z" fill="white"/>
<path d="M39.0348 79.2155C39.0348 77.5281 39.9994 76.579 41.157 76.579C42.5776 76.579 43.2616 77.8679 43.2616 79.2037C43.2616 81.0785 42.221 81.8694 41.1277 81.8694C39.8942 81.8694 39.0348 80.8266 39.0348 79.2155ZM37.585 79.2155C37.585 81.5179 38.8594 83.0998 40.8471 83.0998C42.0164 83.0998 42.8348 82.467 43.2324 81.7816H43.2616C43.2616 81.7816 43.2324 82.0452 43.2324 82.426V85.8592H44.6355V75.5069H43.2908V76.1103C43.2908 76.4033 43.3201 76.6259 43.3201 76.6259H43.2908C42.8231 75.8057 41.8994 75.337 40.9348 75.337C38.9764 75.3253 37.585 76.8544 37.585 79.2155Z" fill="white"/>
<path d="M52.2008 77.54V73.8314H53.9137C54.5744 73.8314 54.8959 73.89 55.159 74.0072C55.8021 74.2825 56.1236 74.886 56.1236 75.6359C56.1236 76.7783 55.4045 77.54 54.2821 77.54H52.2008ZM50.751 82.9241H52.2008V78.8054H54.4107L56.5913 82.9241H58.2282L56.0301 78.905C55.8547 78.5828 55.7378 78.4363 55.7378 78.4363V78.4071C56.8661 78.0262 57.5793 76.8838 57.5793 75.5656C57.5793 74.2474 56.9362 73.2924 55.9424 72.853C55.5156 72.6597 55.0187 72.5718 54.0248 72.5718H50.7451V82.9241H50.751Z" fill="white"/>
<path d="M60.4555 78.3776C60.6602 77.1472 61.5254 76.4266 62.6186 76.4266C63.5832 76.4266 64.3725 77.1004 64.4193 78.3776H60.4555ZM58.9297 79.2154C58.9297 81.4124 60.5374 83.0997 62.8642 83.0997C63.8872 83.0997 65.0156 82.7013 65.7346 82.0451L65.1325 81.0023C64.5479 81.5296 63.7411 81.8694 62.9519 81.8694C61.6189 81.8694 60.4789 81.0023 60.4088 79.4029H65.7931C65.8223 79.1978 65.8516 78.9927 65.8516 78.7994C65.8516 76.8953 64.7408 75.3252 62.6479 75.3252C60.5432 75.3252 58.9297 76.8543 58.9297 79.2154Z" fill="white"/>
<path d="M67.085 79.2154C67.085 81.4417 68.7102 83.0997 71.0487 83.0997C72.2062 83.0997 73.3287 82.631 74.0068 81.9104L73.4339 80.8675C72.861 81.471 71.9724 81.8635 71.1539 81.8635C69.6164 81.8635 68.5348 80.7035 68.5348 79.1978C68.5348 77.6921 69.6164 76.5555 71.1071 76.5555C71.8847 76.5555 72.6564 76.907 73.1533 77.405L73.8256 76.4091C73.1241 75.6591 72.025 75.3252 71.0428 75.3252C68.7219 75.3252 67.085 77.0125 67.085 79.2154Z" fill="white"/>
<path d="M75.1003 84.4648L74.6034 85.5487C74.6034 85.5487 75.2056 86.0056 76.024 86.0056C77.0647 86.0056 77.9825 85.4198 78.4268 84.2598L81.9111 75.5068H80.3736L78.573 80.3754C78.4385 80.7562 78.3216 81.2542 78.3216 81.2542H78.2924C78.2924 81.2542 78.1579 80.7269 78.0117 80.3578L76.1526 75.5068H74.5566L77.661 82.8361L77.2927 83.6856C77.012 84.3593 76.5327 84.787 75.948 84.787C75.5096 84.787 75.1003 84.4648 75.1003 84.4648Z" fill="white"/>
<path d="M82.5479 79.2154C82.5479 81.4417 84.1731 83.0997 86.5116 83.0997C87.6691 83.0997 88.7916 82.631 89.4697 81.9104L88.8968 80.8675C88.3239 81.471 87.4353 81.8635 86.6168 81.8635C85.0793 81.8635 83.9977 80.7035 83.9977 79.1978C83.9977 77.6921 85.0793 76.5555 86.57 76.5555C87.3476 76.5555 88.1193 76.907 88.6162 77.405L89.2885 76.4091C88.587 75.6591 87.4879 75.3252 86.5057 75.3252C84.1848 75.3252 82.5479 77.0125 82.5479 79.2154Z" fill="white"/>
<path d="M91.0078 80.8853C91.0078 82.7601 92.177 82.9944 92.9955 82.9944C93.2001 82.9944 93.358 82.9651 93.4632 82.9534V81.6938C93.3755 81.7114 93.2703 81.7114 93.2118 81.7114C92.7733 81.7114 92.405 81.5356 92.405 80.6568V72.5776H91.002V80.8853H91.0078Z" fill="white"/>
<path d="M94.913 82.9241H96.3336V75.507H94.913V82.9241ZM94.8838 74.0072H96.3453V72.5718H94.8838V74.0072Z" fill="white"/>
<path d="M98.5137 82.9239H99.9343V79.3619C99.9343 77.8386 100.957 76.6375 102.407 76.6375C103.594 76.6375 103.799 77.4578 103.799 78.5006V82.9298H105.219V78.1784C105.219 76.286 104.43 75.3311 102.688 75.3311C101.063 75.3311 100.156 76.4325 99.8758 77.0769H99.8466C99.8466 77.0769 99.8934 76.825 99.8934 76.5204V75.5068H98.5195V82.9239H98.5137Z" fill="white"/>
<path d="M108.33 79.0103C108.33 77.4988 109.078 76.5614 110.347 76.5614C111.504 76.5614 112.44 77.118 112.44 79.0513C112.44 80.9847 111.504 81.6057 110.481 81.6057C109.148 81.6057 108.33 80.5453 108.33 79.0103ZM108.037 84.2714L107.57 85.3846C108.301 85.7478 109.207 85.9998 110.101 85.9998C111.972 85.9998 113.831 85.0624 113.831 82.6134V75.5009H112.469V76.2333C112.469 76.368 112.51 76.4559 112.51 76.4559H112.469C112.001 75.665 111.048 75.3252 110.125 75.3252C108.061 75.3252 106.892 76.907 106.892 79.0513C106.892 81.178 108.137 82.8361 110.201 82.8361C111.27 82.8361 111.984 82.3674 112.422 81.635H112.451C112.451 81.635 112.405 81.8694 112.405 82.1037V82.7072C112.405 84.1894 111.352 84.7753 110.06 84.7753C109.353 84.7694 108.622 84.5644 108.037 84.2714Z" fill="white"/>
<path d="M79.1168 14.2895V21.1969V25.3331V30.149V36.3709V37.6247H80.3504C80.4264 37.6306 80.5082 37.6306 80.5901 37.6247H88.7981H91.423C93.1184 37.6247 94.7027 37.3025 96.1935 36.658C97.6726 36.0136 98.9763 35.1348 100.087 34.0157C101.198 32.9026 102.075 31.5961 102.724 30.0845C103.367 28.5906 103.688 26.9911 103.688 25.2863C103.688 23.599 103.367 21.9995 102.724 20.5056C102.081 18.994 101.204 17.6875 100.087 16.5744C98.9763 15.4612 97.6726 14.5648 96.1935 13.9321C94.7554 13.3111 93.2412 12.9888 91.616 12.9654H91.6101C91.5458 12.9654 91.4815 12.9654 91.4172 12.9654H80.6953C80.5374 12.9595 80.3971 12.9595 80.2627 12.9654H79.1051V14.2895H79.1168ZM66.834 62.2196C66.834 48.5453 66.8515 34.8711 66.8632 21.1969H66.8515V0.667964H70.6282C70.9088 0.638671 71.2069 0.626953 71.5285 0.626953H91.4289C93.6972 0.626953 95.8661 0.919889 97.9591 1.50576C100.04 2.09163 101.987 2.92943 103.811 4.00157C105.629 5.07371 107.278 6.36263 108.775 7.8566C110.283 9.36815 111.569 11.0379 112.639 12.8717C113.709 14.7054 114.545 16.6681 115.129 18.7538C115.714 20.8512 116.006 23.0248 116.006 25.2804C116.006 27.4071 115.743 29.4752 115.217 31.4731C114.691 33.4826 113.931 35.3867 112.949 37.1912C111.955 38.9956 110.756 40.6595 109.318 42.1769C107.991 43.5772 106.664 44.7782 105.015 45.7859C104.828 45.9031 104.717 46.032 104.688 46.2019C104.594 46.7467 110.388 60.3975 111.095 62.1083L97.4855 62.1258L92.6507 49.8225C88.1375 49.8225 83.6242 49.9046 79.111 49.9046V62.2079C75.0186 62.2196 70.9263 62.2196 66.834 62.2196Z" fill="white"/>
<path fill-rule="evenodd" clip-rule="evenodd" d="M35.9834 36.8042V42.9734C35.9834 53.5543 44.6241 62.2134 55.1823 62.2134H62.2035V56.0442C62.2035 45.4634 53.5629 36.8042 43.0047 36.8042H35.9834Z" fill="white"/>
<path fill-rule="evenodd" clip-rule="evenodd" d="M31.014 0C48.1433 0 62.028 13.9144 62.028 31.0805C62.028 34.8007 61.3732 38.3687 60.1748 41.6789C57.4621 38.4331 53.8551 35.9608 49.7393 34.6484C49.9556 33.4942 50.0726 32.2991 50.0726 31.0805C50.0726 20.5348 41.5371 11.9811 31.014 11.9811C20.485 11.9811 11.9554 20.5348 11.9554 31.0805C11.9554 41.632 20.4909 50.1799 31.014 50.1799C31.9962 50.1799 32.9608 50.1037 33.9079 49.9631C35.2759 54.1228 37.8307 57.7552 41.1688 60.4502C37.9885 61.5575 34.5685 62.155 31.014 62.155C13.8847 62.155 0 48.2406 0 31.0805C0 13.9144 13.8847 0 31.014 0Z" fill="white"/>
</g>
<defs>
<clipPath id="clip0_114_25">
<rect width="116" height="86" fill="white"/>
</clipPath>
</defs>
</svg>
