<svg width="383" height="284" viewBox="0 0 383 284" fill="none" xmlns="http://www.w3.org/2000/svg">
<g clip-path="url(#clip0_114_877)">
<path d="M260.682 47.6884H260.721V69.9989V83.6582V99.5617V120.109V124.249V124.749H261.221H265.275C265.541 124.768 265.822 124.768 266.102 124.749H293.185H301.852C307.516 124.749 312.814 123.672 317.802 121.516L317.803 121.515C322.741 119.363 327.099 116.426 330.813 112.684C334.527 108.961 337.457 104.593 339.623 99.5461C341.775 94.5472 342.849 89.1979 342.849 83.5034C342.849 77.8669 341.775 72.518 339.624 67.5197C337.477 62.4719 334.546 58.1036 330.813 54.3807C327.101 50.6608 322.744 47.6641 317.801 45.5488C312.99 43.4715 307.926 42.3942 302.496 42.3159H302.489H302.47H302.469H302.467H302.466H302.465H302.464H302.463H302.461H302.46H302.459H302.458H302.456H302.455H302.454H302.453H302.451H302.45H302.449H302.448H302.446H302.445H302.444H302.443H302.441H302.44H302.439H302.438H302.436H302.435H302.434H302.433H302.431H302.43H302.429H302.428H302.426H302.425H302.424H302.423H302.421H302.42H302.419H302.418H302.416H302.415H302.414H302.413H302.411H302.41H302.409H302.408H302.407H302.405H302.404H302.403H302.402H302.4H302.399H302.398H302.397H302.395H302.394H302.393H302.392H302.39H302.389H302.388H302.387H302.385H302.384H302.383H302.382H302.38H302.379H302.378H302.377H302.375H302.374H302.373H302.372H302.37H302.369H302.368H302.367H302.365H302.364H302.363H302.362H302.36H302.359H302.358H302.357H302.356H302.354H302.353H302.352H302.351H302.349H302.348H302.347H302.346H302.344H302.343H302.342H302.341H302.339H302.338H302.337H302.336H302.334H302.333H302.332H302.331H302.329H302.328H302.327H302.326H302.324H302.323H302.322H302.321H302.319H302.318H302.317H302.316H302.314H302.313H302.312H302.311H302.309H302.308H302.307H302.306H302.305H302.303H302.302H302.301H302.3H302.298H302.297H302.296H302.295H302.293H302.292H302.291H302.29H302.288H302.287H302.286H302.285H302.283H302.282H302.281H302.28H302.278H302.277H302.276H302.275H302.273H302.272H302.271H302.27H302.268H302.267H302.266H302.265H302.263H302.262H302.261H302.26H302.258H302.257H302.256H302.255H302.253H302.252H302.251H302.25H302.249H302.247H302.246H302.245H302.244H302.242H302.241H302.24H302.239H302.237H302.236H302.235H302.234H302.232H302.231H302.23H302.229H302.227H302.226H302.225H302.224H302.222H302.221H302.22H302.219H302.217H302.216H302.215H302.214H302.212H302.211H302.21H302.209H302.207H302.206H302.205H302.204H302.202H302.201H302.2H302.199H302.198H302.196H302.195H302.194H302.193H302.191H302.19H302.189H302.188H302.186H302.185H302.184H302.183H302.181H302.18H302.179H302.178H302.176H302.175H302.174H302.173H302.171H302.17H302.169H302.168H302.166H302.165H302.164H302.163H302.161H302.16H302.159H302.158H302.156H302.155H302.154H302.153H302.151H302.15H302.149H302.148H302.146H302.145H302.144H302.143H302.142H302.14H302.139H302.138H302.137H302.135H302.134H302.133H302.132H302.13H302.129H302.128H302.127H302.125H302.124H302.123H302.122H302.12H302.119H302.118H302.117H302.115H302.114H302.113H302.112H302.11H302.109H302.108H302.107H302.105H302.104H302.103H302.102H302.1H302.099H302.098H302.097H302.095H302.094H302.093H302.092H302.091H302.089H302.088H302.087H302.086H302.084H302.083H302.082H302.081H302.079H302.078H302.077H302.076H302.074H302.073H302.072H302.071H302.069H302.068H302.067H302.066H302.064H302.063H302.062H302.061H302.059H302.058H302.057H302.056H302.054H302.053H302.052H302.051H302.049H302.048H302.047H302.046H302.044H302.043H302.042H302.041H302.04H302.038H302.037H302.036H302.035H302.033H302.032H302.031H302.03H302.028H302.027H302.026H302.025H302.023H302.022H302.021H302.02H302.018H302.017H302.016H302.015H302.013H302.012H302.011H302.01H302.008H302.007H302.006H302.005H302.003H302.002H302.001H302H301.998H301.997H301.996H301.995H301.993H301.992H301.991H301.99H301.988H301.987H301.986H301.985H301.984H301.982H301.981H301.98H301.979H301.977H301.976H301.975H301.974H301.972H301.971H301.97H301.969H301.967H301.966H301.965H301.964H301.962H301.961H301.96H301.959H301.957H301.956H301.955H301.954H301.952H301.951H301.95H301.949H301.947H301.946H301.945H301.944H301.942H301.941H301.94H301.939H301.937H301.936H301.935H301.934H301.933H301.931H301.93H301.929H301.928H301.926H301.925H301.924H301.923H301.921H301.92H301.919H301.918H301.916H301.915H301.914H301.913H301.911H301.91H301.909H301.908H301.906H301.905H301.904H301.903H301.901H301.9H301.899H301.898H301.896H301.895H301.894H301.893H301.891H301.89H301.889H301.888H301.886H301.885H301.884H301.883H301.882H301.88H301.879H301.878H301.877H301.875H301.874H301.873H301.872H301.87H301.869H301.868H301.867H301.865H301.864H301.863H301.862H301.86H301.859H301.858H301.857H301.855H301.854H301.853H301.852H301.85H301.849H301.848H301.847H301.845H301.844H301.843H301.842H301.84H301.839H301.838H301.837H301.835H301.834H301.833H266.441C265.917 42.2966 265.446 42.2964 264.993 42.3159H261.182H260.682V42.8159V47.1884V47.6884ZM221.224 69.4989V2.70574H233.193H233.219L233.245 2.70304C234.15 2.60862 235.116 2.57031 236.166 2.57031H301.872C309.317 2.57031 316.433 3.53189 323.297 5.45382C330.127 7.37674 336.515 10.1263 342.501 13.6454C348.466 17.1637 353.876 21.3939 358.789 26.2988C363.738 31.2601 367.959 36.7399 371.469 42.7582C374.98 48.7772 377.724 55.2191 379.642 62.0653C381.56 68.9464 382.519 76.0791 382.519 83.484C382.519 90.4656 381.656 97.2523 379.93 103.807L379.93 103.808C378.203 110.403 375.709 116.653 372.486 122.576C369.224 128.5 365.292 133.959 360.574 138.938C356.209 143.544 351.862 147.477 346.47 150.773L346.465 150.776C345.786 151.202 345.287 151.731 345.157 152.489L345.157 152.489C345.13 152.647 345.16 152.83 345.186 152.963C345.217 153.121 345.266 153.315 345.33 153.536C345.458 153.98 345.652 154.57 345.903 155.281C346.404 156.705 347.137 158.642 348.031 160.928C349.819 165.5 352.256 171.483 354.774 177.584C358.227 185.953 361.854 194.589 364.159 200.077C364.983 202.04 365.638 203.601 366.056 204.603L322.21 204.659L306.371 164.347L306.247 164.03H305.906C298.455 164.03 291.004 164.098 283.556 164.166L283.549 164.166C276.098 164.233 268.649 164.301 261.201 164.301H260.701V164.801V204.932C247.523 204.969 234.345 204.969 221.166 204.969C221.166 171.27 221.199 137.571 221.231 103.872C221.242 92.5814 221.253 81.2904 221.263 69.9993L221.263 69.4989H221.224Z" stroke="#7E7370"/>
<path d="M119.307 141.913V122.04H141.989C176.572 122.04 204.878 150.411 204.878 185.077V204.95H182.196C147.613 204.95 119.307 176.579 119.307 141.913Z" stroke="#027FC3"/>
<path d="M102.4 0.5C158.679 0.5 204.299 46.225 204.299 102.638C204.299 114.559 202.254 126.004 198.502 136.651C189.646 126.298 178.022 118.384 164.797 114.079C165.465 110.373 165.826 106.542 165.826 102.638C165.826 67.5375 137.421 39.0654 102.4 39.0654C67.3586 39.0654 38.9736 67.5376 38.9736 102.638C38.9736 137.758 67.3781 166.21 102.4 166.21C105.525 166.21 108.596 165.978 111.612 165.549C116.093 178.922 124.269 190.634 134.916 199.445C124.709 202.897 113.764 204.756 102.4 204.756C46.1206 204.756 0.5 159.031 0.5 102.638C0.5 46.225 46.1207 0.5 102.4 0.5Z" stroke="#7E7370"/>
</g>
<defs>
<clipPath id="clip0_114_877">
<rect width="383" height="284" fill="white"/>
</clipPath>
</defs>
</svg>
