<svg width="148" height="81" viewBox="0 0 148 81" fill="none" xmlns="http://www.w3.org/2000/svg">
<g clip-path="url(#clip0_1116_10057)">
<path d="M100.942 18.1109V26.8656V32.1081V38.2119V46.0979V47.6869H102.515C102.612 47.6944 102.717 47.6944 102.821 47.6869H113.294H116.643C118.806 47.6869 120.827 47.2785 122.729 46.4617C124.616 45.6449 126.28 44.5311 127.697 43.1128C129.114 41.7019 130.233 40.046 131.061 38.1302C131.881 36.2367 132.291 34.2095 132.291 32.0487C132.291 29.9101 131.881 27.8829 131.061 25.9894C130.24 24.0736 129.121 22.4177 127.697 21.0068C126.28 19.596 124.616 18.4599 122.729 17.6579C120.894 16.8708 118.962 16.4624 116.889 16.4327H116.881C116.799 16.4327 116.717 16.4327 116.635 16.4327H102.955C102.754 16.4253 102.575 16.4253 102.404 16.4327H100.927V18.1109H100.942ZM85.2704 78.8595C85.2704 61.5282 85.2928 44.1969 85.3077 26.8656H85.2928V0.846413H90.1112C90.4693 0.809285 90.8497 0.794434 91.2599 0.794434H116.65C119.544 0.794434 122.311 1.16571 124.982 1.90827C127.637 2.65083 130.121 3.71268 132.448 5.07156C134.768 6.43044 136.871 8.06407 138.781 9.95759C140.705 11.8734 142.346 13.9897 143.711 16.3139C145.076 18.6381 146.143 21.1257 146.889 23.7692C147.634 26.4275 148.007 29.1824 148.007 32.0413C148.007 34.7367 147.672 37.358 147 39.8901C146.329 42.4371 145.359 44.8504 144.106 47.1374C142.838 49.4245 141.309 51.5334 139.474 53.4566C137.781 55.2313 136.088 56.7536 133.985 58.0308C133.746 58.1793 133.604 58.3426 133.567 58.558C133.448 59.2486 140.839 76.5501 141.742 78.7184L124.378 78.7407L118.209 63.147C112.451 63.147 106.692 63.2509 100.934 63.2509V78.8446C95.7129 78.8595 90.4916 78.8595 85.2704 78.8595Z" fill="#7E7370"/>
<path fill-rule="evenodd" clip-rule="evenodd" d="M45.9097 46.6475V54.4666C45.9097 67.8772 56.934 78.8522 70.4048 78.8522H79.3629V71.0331C79.3629 57.6225 68.3387 46.6475 54.8678 46.6475H45.9097V46.6475Z" fill="#007FC3"/>
<path fill-rule="evenodd" clip-rule="evenodd" d="M39.5696 0C61.4242 0 79.1392 17.6357 79.1392 39.3927C79.1392 44.1079 78.3038 48.6301 76.7747 52.8255C73.3138 48.7118 68.7116 45.5782 63.4605 43.9149C63.7365 42.452 63.8857 40.9372 63.8857 39.3927C63.8857 26.0266 52.9957 15.1853 39.5696 15.1853C26.1361 15.1853 15.2535 26.0266 15.2535 39.3927C15.2535 52.7661 26.1435 63.6001 39.5696 63.6001C40.8227 63.6001 42.0534 63.5035 43.2618 63.3253C45.0072 68.5975 48.2667 73.2013 52.5258 76.6171C48.4681 78.0205 44.1046 78.7779 39.5696 78.7779C17.7149 78.7779 0 61.1422 0 39.3927C0 17.6357 17.7149 0 39.5696 0Z" fill="#7E7370"/>
</g>
<defs>
<clipPath id="clip0_1116_10057">
<rect width="148" height="81" fill="white"/>
</clipPath>
</defs>
</svg>
