<svg width="65" height="54" viewBox="0 0 65 54" fill="none" xmlns="http://www.w3.org/2000/svg">
<g clip-path="url(#clip0_114_282)">
<path fill-rule="evenodd" clip-rule="evenodd" d="M32.5066 36.3131L3.7304 23.2445L16.3849 17.4968C17.1735 18.7275 18.2374 19.768 19.4766 20.5166C20.4279 21.0748 21.5168 21.3666 22.6058 21.354C23.4945 21.3413 24.3707 21.189 25.2093 20.8972C25.71 20.7196 26.1856 20.5039 26.6488 20.2501C27.3872 21.8234 27.9881 23.4602 28.4512 25.1477L30.5415 24.564C30.0158 22.6481 29.3148 20.783 28.4637 18.994C29.2648 18.3088 29.9156 17.4461 30.3412 16.4691C30.942 14.7562 30.9545 12.8784 30.3788 11.1528L32.5066 10.1885L34.2715 10.9879C34.3341 11.5588 34.4593 12.1298 34.6721 12.6754C35.0976 13.6524 35.7485 14.5151 36.5621 15.2003C35.1477 18.1312 34.1839 21.2651 33.6832 24.4879L33.5706 25.2872L35.711 25.6171L35.8361 24.8178C36.2867 21.9249 37.1379 19.1082 38.377 16.4564C38.8402 16.7102 39.3158 16.9259 39.804 17.0908C40.6426 17.3826 41.5188 17.5349 42.4075 17.5476C43.509 17.5603 44.5854 17.2684 45.5492 16.7102C45.7495 16.596 45.9247 16.4564 46.0999 16.3295L61.2954 23.2445L32.5066 36.3131ZM61.2704 30.9334L32.4941 44.002L3.7304 30.9334L9.53822 28.2943L32.056 38.5208C32.3439 38.6477 32.6568 38.6477 32.9447 38.5208L55.4625 28.2943L61.2704 30.9334ZM61.2704 38.6223L32.4941 51.6909L3.7304 38.6223L9.53822 35.9832L32.056 46.2097C32.3439 46.3366 32.6568 46.3366 32.9447 46.2097L55.4625 35.9832L61.2704 38.6223ZM13.4435 8.36148C15.3711 6.95311 19.802 4.50433 24.7086 7.21956C28.2384 9.17351 29.1897 13.4494 28.326 15.6444C28.1132 16.1392 27.8003 16.596 27.4248 16.9766C25.735 13.9696 23.5946 11.2543 21.0788 8.91975L19.6143 10.5438C22.03 12.7769 24.0828 15.4033 25.685 18.2962C25.322 18.4992 24.9339 18.6768 24.5334 18.8164C23.2567 19.3239 21.8172 19.2604 20.5906 18.626C18.5003 17.3826 17.6241 15.4414 16.6979 13.3859C15.9844 11.4827 14.8829 9.76984 13.4435 8.36148ZM40.2921 3.42586C45.2488 0.685255 49.6547 3.13403 51.5698 4.55509C50.1304 5.97614 49.0289 7.68901 48.3154 9.59221C47.3892 11.6477 46.513 13.5889 44.4227 14.8323C43.196 15.4541 41.7691 15.5302 40.4799 15.0227C40.0793 14.8831 39.7038 14.7181 39.3408 14.5151C40.9305 11.6096 42.9832 8.99587 45.399 6.76279L43.9345 5.12604C41.4186 7.46063 39.2783 10.1759 37.5885 13.1956C37.2005 12.815 36.8875 12.3582 36.6747 11.8507C35.8111 9.64296 36.7624 5.3798 40.2921 3.42586ZM65.0004 23.2445C65.0004 22.8131 64.75 22.4197 64.362 22.2421L47.8398 14.7308C48.8411 13.4494 49.6672 12.0156 50.2806 10.5057C51.1693 8.5518 52.0079 6.69935 53.8854 5.55744C54.3986 5.25292 54.5613 4.56777 54.2609 4.04757C54.2109 3.97144 54.1608 3.89531 54.0857 3.83187C54.0106 3.76843 47.1764 -2.89275 39.2532 1.49728C36.6372 2.99447 34.8348 5.60819 34.3466 8.60255L32.9572 7.96815C32.6819 7.84127 32.3564 7.84127 32.0685 7.96815L29.5401 9.12275C28.664 7.51138 27.3497 6.17915 25.7601 5.29099C17.8369 0.900951 10.9902 7.54945 10.9276 7.62557C10.4895 8.04428 10.4895 8.74212 10.9026 9.17351C10.9651 9.23695 11.0402 9.30039 11.1153 9.35114C12.9929 10.4931 13.8315 12.3455 14.7202 14.2994C14.9079 14.7181 15.1082 15.1495 15.3085 15.5809L0.638739 22.2421C0.0879974 22.4959 -0.149823 23.143 0.0879974 23.6885C0.200649 23.9296 0.388402 24.1326 0.638739 24.2468L6.89716 27.0889L0.638739 29.931C0.0879974 30.1721 -0.149823 30.8319 0.0879974 31.3775C0.200649 31.6185 0.388402 31.8215 0.638739 31.9357L6.89716 34.7778L0.638739 37.6199C0.0879974 37.861 -0.149823 38.5208 0.0879974 39.0664C0.200649 39.3074 0.388402 39.5104 0.638739 39.6246L32.056 53.8986C32.3439 54.0255 32.6568 54.0255 32.9447 53.8986L64.362 39.6246C64.9128 39.3709 65.1506 38.7238 64.9128 38.1782C64.8001 37.9244 64.6124 37.7341 64.362 37.6199L58.1161 34.7778L64.362 31.9357C64.9128 31.6947 65.1506 31.0349 64.9128 30.4893C64.8001 30.2482 64.6124 30.0452 64.362 29.931L58.1161 27.0889L64.362 24.2468C64.75 24.0692 65.0004 23.6759 65.0004 23.2445Z" fill="#B59A8C"/>
</g>
<defs>
<clipPath id="clip0_114_282">
<rect width="65" height="54" fill="white"/>
</clipPath>
</defs>
</svg>
