<svg width="53" height="52" viewBox="0 0 53 52" fill="none" xmlns="http://www.w3.org/2000/svg">
<path fill-rule="evenodd" clip-rule="evenodd" d="M22.642 13.0556L14.4561 7.77783L16.7423 4.00647C17.564 2.62827 19.0284 1.79494 20.6087 1.78425H24.1906L26.3819 6.23937L22.642 13.0556ZM27.2248 3.76074V3.71801L33.4721 15.6945C33.6934 16.1111 33.5459 16.6346 33.1455 16.8804L30.9647 18.2052L40.8889 19.3483L45.7561 9.15603L43.5437 10.2885C43.1223 10.5022 42.6166 10.3526 42.3849 9.93594L38.982 4.01715C38.2761 2.63895 36.8644 1.77357 35.3368 1.77357H27.2248H26.1923L27.2248 3.76074ZM27.2248 8.41885V8.37612L23.7271 14.7543C23.6112 14.968 23.411 15.1282 23.1687 15.1817C23.095 15.203 23.0212 15.2137 22.9475 15.2137C22.7789 15.2137 22.6104 15.1603 22.4734 15.0748L12.76 8.80347C12.3596 8.54706 12.2438 8.00219 12.4966 7.58552L15.2357 3.07699C16.3735 1.1646 18.4068 7.03292e-05 20.6087 7.03292e-05H27.2353H35.3474C37.5071 -0.0106134 39.5088 1.19665 40.5201 3.1304L43.5016 8.3227L47.3048 6.36758C47.5471 6.23937 47.8421 6.23937 48.0844 6.35689C48.5269 6.57057 48.706 7.10475 48.4953 7.55347L42.2163 20.7051C42.0688 21.015 41.7633 21.2073 41.4262 21.2073C41.3946 21.2073 41.3629 21.2073 41.3313 21.1966L28.194 19.6795C27.8147 19.6368 27.5092 19.3483 27.4355 18.9744C27.3512 18.6005 27.5197 18.2158 27.8463 18.0128L31.5442 15.7586L27.4776 7.97014L27.2248 8.41885ZM17.6588 35.8867V46.6239H15.0145C13.371 46.6132 11.854 45.7158 11.0217 44.2841L8.59858 40.032L11.0954 35.8867H17.6588ZM20.6719 25.5983L21.1144 26.5598C21.2092 26.7735 21.2197 27.0299 21.1354 27.2543C20.9669 27.7137 20.4506 27.9487 19.9976 27.7671L16.3525 26.3462L11.9488 34.0919H18.5438C19.0284 34.0919 19.4287 34.4978 19.4287 34.9893V47.5213C19.4287 48.0128 19.0284 48.4188 18.5438 48.4188H15.0145C12.7389 48.3974 10.6424 47.1688 9.48354 45.1816L6.79707 40.4594L1.88768 31.859C0.823632 29.9145 0.813097 27.5641 1.86661 25.609L1.87715 25.5876H1.83501L1.86661 25.5235L4.78485 19.6047L0.423296 16.8804C0.170452 16.7201 0.0229596 16.4637 0.00188925 16.1646C-0.0297162 15.6731 0.339015 15.2458 0.823632 15.2137L14.9513 14.3163C15.32 14.2949 15.6571 14.4979 15.8046 14.8398L20.693 25.5876H20.6719V25.5983ZM3.82615 25.5983H3.8683L3.44689 26.4423C2.66729 27.8419 2.65675 29.5513 3.41528 30.9615L7.5556 38.2265L14.7406 25.5983H14.6984L15.2041 24.7115C15.4254 24.3269 15.8784 24.1667 16.2893 24.3269L18.607 25.2351L14.4772 16.1539L3.69973 16.827L6.39674 18.515C6.78654 18.7607 6.92349 19.2628 6.72333 19.6795L3.82615 25.5983ZM27.2248 43.6324V43.6004L30.9226 48.4829V47.532C30.9226 47.0406 31.3229 46.6346 31.8076 46.6346H38.8661C40.4043 46.6773 41.8265 45.8119 42.5113 44.4124L47.9264 35H31.8076C31.3229 35 30.9226 34.594 30.9226 34.1026V31.9444L27.2248 36.0684V36.047L24.1063 39.5299L27.2248 43.6324ZM52.4459 25.5983C53.2993 27.5107 53.1623 29.7436 52.0667 31.5491L50.2336 34.5619L44.0494 45.2991C43.0591 47.2649 41.0469 48.4829 38.8767 48.4294H32.6925V51.1111C32.6925 51.3888 32.5661 51.6559 32.3448 51.8162C31.955 52.1153 31.4072 52.0405 31.1122 51.6559L27.2248 46.5384V46.5705L22.2627 40.0213C21.9993 39.6795 22.0204 39.1987 22.3048 38.8782L27.2248 33.3867V33.4081L31.1544 29.0278C31.3229 28.8355 31.5547 28.7393 31.8076 28.7393C32.2922 28.7393 32.6925 29.1453 32.6925 29.6368V33.2158H40.8994L37.2121 26.4851C37.0541 26.1966 37.0646 25.8654 37.2121 25.609H37.17C37.2437 25.438 37.3701 25.2992 37.5281 25.203L48.1265 18.9316C48.1476 18.921 48.1581 18.9103 48.1792 18.8996C48.6111 18.6752 49.1484 18.8569 49.3591 19.3056L52.2142 25.0855C52.309 25.2564 52.3933 25.4274 52.467 25.609H52.4459V25.5983ZM40.3621 25.5983H40.4991L39.1822 26.3782L42.9222 33.2051H48.9693L50.5602 30.609C51.4135 29.1987 51.4556 27.4359 50.6655 25.9936L50.4759 25.5983H50.518L48.2213 20.9509L40.3621 25.5983Z" fill="white"/>
</svg>
