<svg width="52" height="76" viewBox="0 0 52 76" fill="none" xmlns="http://www.w3.org/2000/svg">
<g clip-path="url(#clip0_114_285)">
<path fill-rule="evenodd" clip-rule="evenodd" d="M18.6615 7.73483C18.6615 7.15294 19.1345 6.68459 19.7222 6.68459H32.2922C32.8798 6.68459 33.3528 7.15294 33.3528 7.73483V13.0711H18.6615V7.73483ZM48.9327 13.0711H40.1036V7.73483C40.1036 3.47712 36.6064 0 32.2922 0H20.7111C20.0948 0 19.5932 0.496732 19.5932 1.1212C19.5932 1.74566 20.0948 2.24239 20.7111 2.24239H32.2922C35.3594 2.24239 37.8534 4.71186 37.8534 7.74902V13.0853H35.6031V7.73483C35.6031 5.9324 34.1268 4.4564 32.2922 4.4564H19.7222C17.9019 4.4564 16.4112 5.9324 16.4112 7.73483V13.0711H14.1466V7.73483C14.1466 5.84725 15.1069 4.11578 16.7266 3.09393C17.2569 2.76751 17.4002 2.07208 17.0706 1.56116C16.7409 1.03604 16.0386 0.894118 15.5226 1.22054C13.2437 2.65397 11.8964 5.08086 11.8964 7.73483V13.0711H3.06726C1.37596 13.0711 0 14.4194 0 16.0941V23.1193C0 23.7296 0.501654 24.2405 1.1323 24.2405C1.74862 24.2405 2.26461 23.7438 2.26461 23.1193V16.0941C2.26461 15.6542 2.62293 15.2852 3.08159 15.2852H48.9471C49.3914 15.2852 49.7641 15.6542 49.7641 16.0941V68.2936C49.7641 71.3165 47.2845 73.7576 44.2459 73.7576H33.5105C32.8942 73.7576 32.3782 74.2543 32.3782 74.8788C32.3782 75.5033 32.8798 76 33.5105 76H44.2459C48.5314 76 52.0287 72.5513 52.0287 68.2936V16.0941C52 14.4194 50.624 13.0711 48.9327 13.0711ZM28.6086 73.7718H7.7828C4.72988 73.7718 2.26461 71.3165 2.26461 68.3078V27.8738C2.26461 27.2635 1.76295 26.7526 1.1323 26.7526C0.501654 26.7668 0 27.2635 0 27.8738V68.2936C0 72.5371 3.48291 76 7.7828 76H28.6086C29.2249 76 29.7409 75.5033 29.7409 74.8788C29.7409 74.2543 29.2249 73.7718 28.6086 73.7718Z" fill="#B59A8C"/>
</g>
<defs>
<clipPath id="clip0_114_285">
<rect width="52" height="76" fill="white"/>
</clipPath>
</defs>
</svg>
