<svg width="97" height="101" viewBox="0 0 97 101" fill="none" xmlns="http://www.w3.org/2000/svg">
<g clip-path="url(#clip0_4_775)">
<path d="M79.1037 30.0443H67.667C68.9378 27.3808 69.5731 24.3977 69.5731 21.2015C69.5731 15.3418 67.2434 10.0148 63.3253 6.17932C59.5131 2.34388 54.2183 0 48.3941 0C42.5699 0 37.381 2.34388 33.5688 6.17932C29.7565 10.0148 27.321 15.3418 27.321 21.2015C27.321 24.3977 28.0622 27.3808 29.2271 30.0443H17.8963L0 101H97L79.1037 30.0443ZM34.2041 21.2015C34.2041 13.3175 40.5579 6.92511 48.5 6.92511C56.3362 6.92511 62.7958 13.3175 62.7958 21.308C62.7958 24.6108 61.631 27.7004 59.7249 30.1508H37.277C35.369 27.5939 34.2041 24.5042 34.2041 21.2015Z" fill="white"/>
<path d="M44.4614 49.4956C44.4614 49.9591 44.3207 50.3732 44.0395 50.7378C43.7634 51.0972 43.339 51.3237 42.766 51.4175V51.48C43.3963 51.5529 43.8806 51.7716 44.2192 52.1362C44.5629 52.4956 44.7348 52.9591 44.7348 53.5269C44.7348 53.9696 44.615 54.3836 44.3754 54.769C44.141 55.1545 43.7244 55.467 43.1254 55.7065C42.5265 55.9409 41.6853 56.0581 40.602 56.0581H36.266V47.2065H40.6176C41.5082 47.2065 42.2348 47.2951 42.7973 47.4722C43.365 47.644 43.7843 47.9019 44.0551 48.2456C44.3259 48.5841 44.4614 49.0008 44.4614 49.4956ZM41.6254 53.23C41.6254 53.0008 41.5499 52.8159 41.3989 52.6753C41.253 52.5295 40.9666 52.4565 40.5395 52.4565H39.3207V54.0581H40.5082C40.9093 54.0581 41.1957 53.9826 41.3676 53.8315C41.5395 53.6753 41.6254 53.4748 41.6254 53.23ZM41.4223 49.9019C41.4223 49.6727 41.3494 49.5008 41.2035 49.3862C41.0577 49.2664 40.8468 49.2065 40.5707 49.2065H39.3207V50.5347H40.4614C40.7843 50.5347 41.0239 50.4748 41.1801 50.355C41.3416 50.2352 41.4223 50.0841 41.4223 49.9019ZM50.3129 47.0503C51.1723 47.0503 51.9145 47.2013 52.5395 47.5034C53.1645 47.8003 53.6463 48.2482 53.9848 48.8472C54.3233 49.4461 54.4926 50.1961 54.4926 51.0972V52.4565H49.0317C49.0577 52.9201 49.2296 53.3003 49.5473 53.5972C49.8702 53.894 50.3442 54.0425 50.9692 54.0425C51.5213 54.0425 52.0265 53.9878 52.4848 53.8784C52.9483 53.769 53.4249 53.5998 53.9145 53.3706V55.5659C53.4874 55.7899 53.0213 55.9539 52.516 56.0581C52.0108 56.1623 51.3728 56.2144 50.602 56.2144C49.7114 56.2144 48.9145 56.0555 48.2114 55.7378C47.5082 55.4201 46.9535 54.9279 46.5473 54.2612C46.1463 53.5946 45.9457 52.7378 45.9457 51.6909C45.9457 50.6284 46.128 49.756 46.4926 49.0737C46.8572 48.3862 47.3676 47.8784 48.0239 47.5503C48.6801 47.217 49.4431 47.0503 50.3129 47.0503ZM50.4223 49.1284C50.0629 49.1284 49.7608 49.243 49.516 49.4722C49.2765 49.6961 49.1358 50.0503 49.0942 50.5347H51.7192C51.714 50.2743 51.6619 50.0373 51.5629 49.8237C51.464 49.6102 51.3181 49.4409 51.1254 49.3159C50.9379 49.1909 50.7035 49.1284 50.4223 49.1284ZM60.2504 56.2144C59.3546 56.2144 58.5759 56.0555 57.9145 55.7378C57.253 55.4149 56.74 54.9201 56.3754 54.2534C56.016 53.5815 55.8364 52.7222 55.8364 51.6753C55.8364 50.6024 56.0369 49.7248 56.4379 49.0425C56.8442 48.3602 57.3989 47.8576 58.102 47.5347C58.8051 47.2118 59.602 47.0503 60.4926 47.0503C61.0343 47.0503 61.5473 47.1102 62.0317 47.23C62.5213 47.3498 62.9744 47.5138 63.391 47.7222L62.4926 49.98C62.128 49.8185 61.7869 49.6909 61.4692 49.5972C61.1567 49.4982 60.8312 49.4487 60.4926 49.4487C60.1853 49.4487 59.9145 49.5295 59.6801 49.6909C59.4457 49.8524 59.2634 50.0972 59.1332 50.4253C59.003 50.7482 58.9379 51.1597 58.9379 51.6597C58.9379 52.1701 59.003 52.5815 59.1332 52.894C59.2687 53.2065 59.4535 53.4331 59.6879 53.5737C59.9275 53.7144 60.2009 53.7847 60.5082 53.7847C60.9509 53.7847 61.391 53.717 61.8285 53.5815C62.2713 53.4409 62.6905 53.2482 63.0864 53.0034V55.4331C62.7218 55.6727 62.3103 55.8628 61.852 56.0034C61.3937 56.144 60.8598 56.2144 60.2504 56.2144ZM28.5864 64.2065V67.394H31.0082V64.2065H34.0629V73.0581H31.0082V69.6675H28.5864V73.0581H25.5317V64.2065H28.5864ZM40.1567 64.0503C41.016 64.0503 41.7582 64.2013 42.3832 64.5034C43.0082 64.8003 43.49 65.2482 43.8285 65.8472C44.1671 66.4461 44.3364 67.1961 44.3364 68.0972V69.4565H38.8754C38.9015 69.9201 39.0733 70.3003 39.391 70.5972C39.714 70.894 40.1879 71.0425 40.8129 71.0425C41.365 71.0425 41.8702 70.9878 42.3285 70.8784C42.7921 70.769 43.2687 70.5998 43.7582 70.3706V72.5659C43.3312 72.7899 42.865 72.9539 42.3598 73.0581C41.8546 73.1623 41.2166 73.2144 40.4457 73.2144C39.5551 73.2144 38.7582 73.0555 38.0551 72.7378C37.352 72.4201 36.7973 71.9279 36.391 71.2612C35.99 70.5946 35.7895 69.7378 35.7895 68.6909C35.7895 67.6284 35.9718 66.756 36.3364 66.0737C36.7009 65.3862 37.2114 64.8784 37.8676 64.5503C38.5239 64.217 39.2869 64.0503 40.1567 64.0503ZM40.266 66.1284C39.9067 66.1284 39.6046 66.243 39.3598 66.4722C39.1202 66.6961 38.9796 67.0503 38.9379 67.5347H41.5629C41.5577 67.2743 41.5056 67.0373 41.4067 66.8237C41.3077 66.6102 41.1619 66.4409 40.9692 66.3159C40.7817 66.1909 40.5473 66.1284 40.266 66.1284ZM54.2739 66.48H51.3598V73.0581H48.3051V66.48H45.391V64.2065H54.2739V66.48ZM63.9301 66.48H61.016V73.0581H57.9614V66.48H55.0473V64.2065H63.9301V66.48ZM73.8285 68.6128C73.8285 69.3524 73.727 70.0086 73.5239 70.5815C73.3207 71.1545 73.0265 71.6362 72.641 72.0269C72.2556 72.4175 71.7895 72.7144 71.2426 72.9175C70.6957 73.1154 70.0785 73.2144 69.391 73.2144C68.7504 73.2144 68.1619 73.1154 67.6254 72.9175C67.0942 72.7144 66.6306 72.4175 66.2348 72.0269C65.839 71.6362 65.5317 71.1545 65.3129 70.5815C65.0994 70.0086 64.9926 69.3524 64.9926 68.6128C64.9926 67.6336 65.1697 66.8055 65.5239 66.1284C65.8832 65.4513 66.3937 64.9357 67.0551 64.5815C67.7218 64.2274 68.516 64.0503 69.4379 64.0503C70.2869 64.0503 71.0421 64.2274 71.7035 64.5815C72.365 64.9357 72.8832 65.4513 73.2582 66.1284C73.6384 66.8055 73.8285 67.6336 73.8285 68.6128ZM68.0942 68.6128C68.0942 69.118 68.1384 69.5451 68.227 69.894C68.3155 70.2378 68.4562 70.5008 68.6489 70.6831C68.8468 70.8602 69.1046 70.9487 69.4223 70.9487C69.74 70.9487 69.9926 70.8602 70.1801 70.6831C70.3676 70.5008 70.503 70.2378 70.5864 69.894C70.6749 69.5451 70.7192 69.118 70.7192 68.6128C70.7192 68.1076 70.6749 67.6857 70.5864 67.3472C70.503 67.0086 70.365 66.7534 70.1723 66.5815C69.9848 66.4097 69.7296 66.3237 69.4067 66.3237C68.9431 66.3237 68.6072 66.5164 68.3989 66.9019C68.1957 67.2873 68.0942 67.8576 68.0942 68.6128ZM41.852 90.0581H33.5629V88.0269L36.352 85.2065C36.9301 84.6024 37.378 84.118 37.6957 83.7534C38.0187 83.3888 38.2452 83.0789 38.3754 82.8237C38.5056 82.5685 38.5707 82.3029 38.5707 82.0269C38.5707 81.6883 38.4614 81.4435 38.2426 81.2925C38.0239 81.1414 37.766 81.0659 37.4692 81.0659C37.1098 81.0659 36.7452 81.1701 36.3754 81.3784C36.0108 81.5815 35.5968 81.8836 35.1332 82.2847L33.4379 80.3003C33.7817 79.993 34.1463 79.7013 34.5317 79.4253C34.9171 79.144 35.3728 78.9149 35.8989 78.7378C36.4249 78.5607 37.0655 78.4722 37.8207 78.4722C38.5968 78.4722 39.2687 78.6076 39.8364 78.8784C40.4093 79.1493 40.852 79.5216 41.1645 79.9956C41.477 80.4644 41.6332 80.9982 41.6332 81.5972C41.6332 82.2586 41.5108 82.8498 41.266 83.3706C41.0265 83.8862 40.6645 84.4045 40.1801 84.9253C39.6957 85.4409 39.0916 86.0269 38.3676 86.6831L37.5317 87.4331V87.5112H41.852V90.0581ZM53.8676 81.2065H57.2426L53.9301 85.4487L57.5004 90.0581H54.0082L50.727 85.5659V90.0581H47.6723V81.2065H50.727V85.4956L53.8676 81.2065ZM65.0629 81.2065V83.48H61.5395V90.0581H58.4848V81.2065H65.0629ZM66.1176 88.7612C66.1176 88.2091 66.2791 87.8211 66.602 87.5972C66.9301 87.3732 67.3233 87.2612 67.7817 87.2612C68.214 87.2612 68.589 87.3732 68.9067 87.5972C69.2244 87.8211 69.3832 88.2091 69.3832 88.7612C69.3832 89.2873 69.2244 89.6675 68.9067 89.9019C68.589 90.1362 68.214 90.2534 67.7817 90.2534C67.3233 90.2534 66.9301 90.1362 66.602 89.9019C66.2791 89.6675 66.1176 89.2873 66.1176 88.7612Z" fill="#7E7370"/>
</g>
<defs>
<clipPath id="clip0_4_775">
<rect width="97" height="101" fill="white"/>
</clipPath>
</defs>
</svg>
